<svg xmlns="http://www.w3.org/2000/svg" viewBox="0 0 1600 395"><g data-name="custom – 1" clip-path="url(#clip-custom_1)"><path fill="transparent" d="M0 0h1600v395H0z"/><g data-name="Grupo 1"><path d="M1650.49 16.014h-30.27c-57.495-8.762-201.919-7.529-316.908 49.35S975.284 229.17 860.294 228.709c-114.989.461-239.607-42.708-370.191-54.194-135.1-13.841-141.683 35.37-256.672 59.505-114.989 25.058-183.4 25.307-260.416 0l-57.495 10.377V384.96h1724.837l5.1-254.111" fill="rgba(255,255, 255,0.3)"/><path d="M1675.939 194.848L1670.981 385H-6V274.261l64.765 5.555c68.473-.36 150.592-36.348 262.391-55.1 111.8-18.06 100.6-21.808 231.951-11.45 126.961 8.595 243.193 25.888 354.993 25.541 111.8.345 306.849-102.307 427.483-132.834s219.933-43.538 279.5-29.97l55.9 14.507" fill="rgba(255,255, 255,0.6)"/><path d="M1633.262 234.829l-5 181.13h-1693.1V274.401l61.731 27.334c61.39 17.994 325.739-85.544 458.347-75.679 128.182 8.187 284.461 37.109 397.334 36.78 112.874.329 324.192-69.319 437.065-109.862s262.466-66.323 318.9-60.078h30.586" fill="#fff"/></g></g></svg>